<svg width="116" height="138" viewBox="0 0 116 138" fill="none" xmlns="http://www.w3.org/2000/svg">
<path d="M13.7495 108.903C13.6553 108.903 13.5651 108.866 13.4985 108.799C13.4319 108.733 13.3945 108.643 13.3945 108.548V102.585C13.3945 102.491 13.4319 102.401 13.4985 102.334C13.5651 102.268 13.6553 102.23 13.7495 102.23C13.8436 102.23 13.9339 102.268 14.0005 102.334C14.067 102.401 14.1044 102.491 14.1044 102.585V108.548C14.1044 108.643 14.067 108.733 14.0005 108.799C13.9339 108.866 13.8436 108.903 13.7495 108.903Z" fill="#212529"/>
<path d="M29.3318 57.9694C21.0971 60.8977 19.3579 45.2625 26.9714 47.8003C34.5849 50.3382 31.3549 36.6729 31.3549 36.6729C22.6943 7.08856 49.2972 1.44499 49.2972 1.44499C49.2972 1.44499 52.119 -0.294225 56.0233 5.10088C56.0233 5.10088 64.3112 1.53372 70.079 12.182C75.8468 22.8302 69.2094 39.3705 72.2264 44.2154C75.4919 49.4153 78.6154 43.7717 80.5498 48.5102C82.1825 52.5033 74.2141 57.0288 72.2264 57.0821L29.3318 57.9694Z" fill="#212529"/>
<path d="M27.326 58.6965C25.2496 58.6965 23.9541 57.4542 23.2797 56.5669C21.505 54.2065 21.221 50.5329 22.6586 48.5452C23.6169 47.2142 25.1786 46.8237 27.0776 47.4626C28.4974 47.924 29.5977 47.8353 30.343 47.1432C32.8276 44.8715 31.0707 37.0628 30.9997 36.7611C28.2489 27.302 28.7636 19.2803 32.5614 12.9268C37.9743 3.87582 48.3386 1.3025 49.1727 1.10728C49.6164 0.876567 52.4381 -0.312485 56.1473 4.67444C57.6927 4.17383 59.3347 4.04612 60.939 4.30175C63.5833 4.70993 67.3457 6.37816 70.3982 12.004C73.8056 18.3042 72.936 26.6453 72.2439 33.336C71.747 38.0389 71.3388 42.103 72.5278 44.0197C74.0896 46.522 75.5626 46.3446 76.9646 46.1671C78.3666 45.9896 79.8396 45.8299 80.8867 48.3855C81.3481 49.5213 81.1529 50.7636 80.301 52.0769C78.4376 54.9341 73.8234 57.401 72.2439 57.4365L29.4024 58.3238C28.7363 58.5642 28.0342 58.6902 27.326 58.6965ZM25.4094 47.8708C24.9864 47.8534 24.5658 47.9435 24.1872 48.1329C23.8085 48.3222 23.4841 48.6045 23.2442 48.9534C22.0019 50.6926 22.2859 54.0468 23.8476 56.1409C24.6107 57.1348 26.3145 58.6788 29.225 57.6317H29.3315L72.2261 56.7443C73.4684 56.7088 77.8874 54.5082 79.6976 51.7219C80.4253 50.6038 80.6027 49.5923 80.2301 48.6694C79.3959 46.6285 78.4021 46.735 77.0533 46.8947C75.7046 47.0544 73.7169 47.2852 71.9244 44.4101C70.5934 42.2982 71.0371 38.1277 71.534 33.2827C72.2261 26.6808 73.078 18.4639 69.777 12.3589C67.4699 8.11737 64.3819 5.57954 60.8325 5.01163C58.1705 4.60345 56.1828 5.43756 56.165 5.45531L55.8988 5.56179L55.7391 5.33108C52.0655 0.255421 49.5099 1.74617 49.4921 1.76392L49.4389 1.79942H49.3856C49.2792 1.83491 38.6132 4.19527 33.1648 13.3173C29.4734 19.4932 28.9765 27.3374 31.6918 36.6014C31.7806 36.9386 33.6617 45.0845 30.8222 47.6756C29.8816 48.5452 28.5328 48.6872 26.8469 48.137C26.3858 47.9691 25.9 47.8791 25.4094 47.8708Z" fill="#212529"/>
<path d="M66.3164 21.6768H66.2099C56.5023 18.9083 49.5099 10.5671 49.4389 10.4784C49.3777 10.4055 49.348 10.3112 49.3564 10.2163C49.3647 10.1215 49.4103 10.0338 49.4833 9.97262C49.5562 9.91143 49.6505 9.88173 49.7454 9.89005C49.8402 9.89837 49.9279 9.94403 49.9891 10.017C50.0601 10.1057 56.9104 18.2871 66.4051 20.9847C66.4509 20.9969 66.4938 21.0183 66.5312 21.0473C66.5686 21.0764 66.5998 21.1127 66.623 21.1541C66.6461 21.1954 66.6607 21.241 66.666 21.2881C66.6713 21.3352 66.667 21.3829 66.6536 21.4283C66.6336 21.5017 66.5894 21.5662 66.5282 21.6113C66.467 21.6564 66.3924 21.6795 66.3164 21.6768Z" fill="#212529"/>
<path d="M62.3061 32.643H62.2174C62.1707 32.6386 62.1253 32.6249 62.0839 32.6028C62.0425 32.5808 62.0059 32.5507 61.9762 32.5144C61.9465 32.4781 61.9243 32.4363 61.9109 32.3913C61.8974 32.3464 61.893 32.2992 61.8979 32.2526C61.9001 32.2066 61.9116 32.1616 61.9318 32.1203C61.952 32.079 61.9804 32.0423 62.0153 32.0124C62.0502 31.9825 62.0909 31.96 62.1348 31.9464C62.1787 31.9327 62.2249 31.9282 62.2706 31.9331C62.3949 31.9331 65.3586 32.1106 65.891 27.2656C66.1927 24.6036 65.4474 23.805 64.7375 23.0418C64.0276 22.2787 63.3532 21.5688 63.5484 19.5634C63.5578 19.4693 63.6042 19.3827 63.6775 19.3228C63.7507 19.2629 63.8447 19.2345 63.9389 19.244C64.033 19.2534 64.1195 19.2998 64.1794 19.373C64.2393 19.4462 64.2677 19.5403 64.2583 19.6344C64.0986 21.3204 64.631 21.8883 65.2521 22.5627C65.8733 23.2371 66.9204 24.3551 66.6009 27.3544C66.033 32.3945 62.8918 32.643 62.3061 32.643Z" fill="#212529"/>
<path d="M58.0463 22.1208H57.9931L53.9645 21.7658C53.8452 21.7524 53.7358 21.693 53.6596 21.6002C53.5833 21.5074 53.5463 21.3886 53.5563 21.2689C53.5606 21.2113 53.5767 21.1551 53.6034 21.1038C53.6302 21.0525 53.6671 21.0073 53.712 20.9707C53.7568 20.9342 53.8086 20.9072 53.8642 20.8913C53.9198 20.8755 53.9781 20.8711 54.0355 20.8785L58.0818 21.2334C58.1401 21.2379 58.197 21.2539 58.2491 21.2804C58.3013 21.307 58.3476 21.3436 58.3856 21.3881C58.4235 21.4326 58.4523 21.4842 58.4702 21.5399C58.4881 21.5956 58.4948 21.6543 58.49 21.7126C58.4739 21.8212 58.4211 21.9209 58.3404 21.9952C58.2596 22.0695 58.1558 22.1138 58.0463 22.1208Z" fill="#212529"/>
<path d="M73.9476 108.548C72.9005 106.72 72.3148 105.975 72.5456 103.881C72.8828 100.668 73.3974 95.5394 73.6459 90.7122C76.0772 95.5394 81.8983 103.756 91.7124 98.6096C93.7178 97.5626 91.4817 65.4936 64.4706 54.8809L61.5069 59.0869C61.0312 59.8346 60.4715 60.5253 59.8386 61.1456C48.587 71.7938 39.607 54.8809 39.607 54.8809C12.0458 63.1332 14.4949 86.0802 11.9748 98.6096C10.6615 105.158 18.8962 102.443 26.8291 101.875C30.2543 101.644 30.8754 96.267 30.9287 92.0432C30.9263 91.982 30.9484 91.9224 30.99 91.8775C31.0316 91.8326 31.0893 91.806 31.1505 91.8036C31.2117 91.8013 31.2713 91.8233 31.3163 91.8649C31.3612 91.9065 31.3877 91.9643 31.3901 92.0255L32.3307 101.502C32.6005 104.271 32.0967 107.06 30.8754 109.56" fill="#ADB5BD"/>
<path d="M39.6069 54.8806C39.6069 54.8806 44.7891 57.4007 47.2737 42.4932L55.0646 41.9785C55.0646 41.9785 55.5438 56.3714 64.4706 54.8806C64.4706 54.8806 53.2189 77.5259 39.6069 54.8806Z" fill="#F8F9FA"/>
<path d="M70.6111 20.8249C70.5228 20.8254 70.4375 20.7929 70.3719 20.7338C70.3062 20.6748 70.265 20.5934 70.2562 20.5055C69.1558 9.875 60.2823 7.1597 60.1936 7.14195C60.1043 7.11341 60.03 7.05076 59.9868 6.96765C59.9436 6.88454 59.935 6.78771 59.9629 6.69828C59.9731 6.65317 59.9925 6.61065 60.0198 6.57335C60.0471 6.53606 60.0819 6.50478 60.1218 6.48148C60.1618 6.45818 60.2061 6.44334 60.252 6.43789C60.2979 6.43245 60.3445 6.43651 60.3888 6.44982C60.4953 6.48531 62.7846 7.17745 65.2515 9.23611C67.7183 11.2948 70.3626 14.6312 70.966 20.4345C70.9709 20.4812 70.9665 20.5283 70.9531 20.5733C70.9397 20.6182 70.9174 20.66 70.8877 20.6964C70.858 20.7327 70.8214 20.7627 70.78 20.7848C70.7386 20.8069 70.6933 20.8205 70.6466 20.8249H70.6111Z" fill="#F8F9FA"/>
<path d="M70.7529 28.563C70.6588 28.563 70.5685 28.5256 70.5019 28.459C70.4353 28.3925 70.3979 28.3022 70.3979 28.208V23.3276C70.3979 23.2335 70.4353 23.1432 70.5019 23.0766C70.5685 23.0101 70.6588 22.9727 70.7529 22.9727C70.847 22.9727 70.9373 23.0101 71.0039 23.0766C71.0704 23.1432 71.1078 23.2335 71.1078 23.3276V28.208C71.1078 28.3022 71.0704 28.3925 71.0039 28.459C70.9373 28.5256 70.847 28.563 70.7529 28.563Z" fill="#F8F9FA"/>
<path d="M33.2 18.8712H33.1112C33.0213 18.8425 32.9457 18.7807 32.8996 18.6983C32.8535 18.616 32.8403 18.5192 32.8628 18.4275C34.602 12.4468 39.021 9.19906 39.1985 9.05708C39.2368 9.03002 39.2802 9.01084 39.326 9.00065C39.3718 8.99046 39.4192 8.98946 39.4654 8.99771C39.5117 9.00597 39.5558 9.02331 39.5953 9.04873C39.6347 9.07415 39.6688 9.10715 39.6954 9.14582C39.7233 9.18311 39.7437 9.22554 39.7553 9.27069C39.7668 9.31585 39.7694 9.36284 39.7628 9.40898C39.7562 9.45512 39.7406 9.49952 39.7169 9.53962C39.6931 9.57973 39.6617 9.61477 39.6244 9.64274C39.5712 9.66048 35.2054 12.8904 33.5372 18.6228C33.5203 18.6978 33.4769 18.7643 33.415 18.81C33.353 18.8556 33.2767 18.8774 33.2 18.8712Z" fill="#F8F9FA"/>
<path d="M32.384 24.7461C32.3018 24.7445 32.2224 24.7158 32.1582 24.6645C32.094 24.6131 32.0486 24.542 32.029 24.4621C31.7983 23.4757 31.7983 22.4493 32.029 21.4628C32.0395 21.4174 32.0588 21.3744 32.0859 21.3364C32.1129 21.2985 32.1472 21.2662 32.1868 21.2415C32.2264 21.2167 32.2704 21.2 32.3164 21.1924C32.3624 21.1847 32.4095 21.1861 32.4549 21.1966C32.5016 21.2047 32.5461 21.2226 32.5854 21.2491C32.6247 21.2755 32.6581 21.31 32.6832 21.3501C32.7083 21.3903 32.7247 21.4354 32.7312 21.4823C32.7377 21.5293 32.7343 21.577 32.7211 21.6226C32.5262 22.5052 32.5262 23.4197 32.7211 24.3024C32.7343 24.3479 32.7377 24.3957 32.7312 24.4426C32.7247 24.4896 32.7083 24.5346 32.6832 24.5748C32.6581 24.615 32.6247 24.6494 32.5854 24.6759C32.5461 24.7023 32.5016 24.7202 32.4549 24.7283L32.384 24.7461Z" fill="#F8F9FA"/>
<path d="M101.811 75.2539C106.815 109.772 93.1502 112.079 84.6138 105.459C80.4433 102.229 77.5682 97.2958 76.8229 95.5033C76.7889 95.4281 76.7712 95.3466 76.771 95.2641C76.7708 95.1816 76.788 95.0999 76.8215 95.0245C76.855 94.9491 76.904 94.8816 76.9655 94.8265C77.0269 94.7714 77.0992 94.7299 77.1778 94.7047C78.917 94.119 83.9749 92.2379 85.8739 89.5935" fill="#F8F9FA"/>
<path d="M92.2446 108.778C89.7067 108.778 86.9737 107.749 84.3826 105.743C79.9636 102.301 77.1241 97.1716 76.4852 95.6454C76.3931 95.3982 76.3994 95.125 76.5029 94.8823C76.556 94.7643 76.6319 94.6581 76.7263 94.5697C76.8208 94.4814 76.9318 94.4127 77.0531 94.3676C78.5971 93.8529 83.726 91.9718 85.5717 89.3807C85.6281 89.3054 85.7122 89.2556 85.8054 89.2423C85.8986 89.229 85.9933 89.2532 86.0686 89.3097C86.1072 89.3363 86.1402 89.3704 86.1657 89.4098C86.1911 89.4493 86.2084 89.4934 86.2167 89.5396C86.2249 89.5858 86.2239 89.6332 86.2138 89.6791C86.2036 89.7249 86.1844 89.7682 86.1573 89.8066C84.2406 92.4864 79.3069 94.3676 77.2838 95.042C77.2238 95.0747 77.1745 95.124 77.1418 95.184C77.124 95.2418 77.124 95.3036 77.1418 95.3614C77.9227 97.2249 80.8332 102.088 84.8263 105.176C88.8194 108.264 92.9722 108.885 96.1844 107.021C99.3966 105.158 104.792 98.272 101.455 75.2895C101.448 75.2438 101.45 75.1971 101.461 75.1522C101.472 75.1073 101.493 75.0653 101.521 75.0287C101.55 74.992 101.585 74.9616 101.626 74.9393C101.666 74.917 101.711 74.9033 101.757 74.8991C101.804 74.8915 101.851 74.8934 101.897 74.9046C101.943 74.9157 101.987 74.9359 102.025 74.964C102.063 74.9921 102.095 75.0276 102.119 75.0682C102.143 75.1089 102.159 75.1539 102.165 75.2008C103.514 84.5357 103.603 92.1315 102.396 97.7573C101.349 102.655 99.3789 105.974 96.5394 107.642C95.2299 108.386 93.7503 108.777 92.2446 108.778Z" fill="#212529"/>
<path d="M115.547 108.424H0.474609V109.134H115.547V108.424Z" fill="#212529"/>
<path d="M101.171 76.372C101.171 76.372 106.904 64.1443 101.171 63.7539C101.171 63.7539 103.07 57.9328 97.906 58.6782C97.906 58.6782 97.8527 50.4436 89.7423 52.4845C89.7423 52.4845 88.9259 56.9922 84.8619 54.3834C84.8619 54.3834 81.2415 48.8818 80.4074 54.1172C80.2476 55.0755 84.8796 58.8557 85.696 60.3642C87.8611 64.3927 89.3696 72.095 88.855 80.1344C88.642 83.5773 88.358 87.9431 88.429 91.599L101.171 76.372Z" fill="#F8F9FA"/>
<path d="M90.8961 52.0227C93.7888 50.7627 92.3336 57.8082 89.2988 60.0976C89.1412 60.2166 88.9592 60.299 88.7658 60.3389C88.5724 60.3788 88.3726 60.3752 88.1808 60.3283C87.4531 60.1331 86.2463 58.7488 87.0094 56.6192" fill="#F8F9FA"/>
<path d="M88.5004 60.7199C88.3625 60.7209 88.2252 60.703 88.0922 60.6666C87.613 60.5424 87.0984 60.081 86.7789 59.4776C86.4595 58.8742 86.282 57.5786 86.6724 56.5138C86.6798 56.4618 86.6985 56.412 86.7274 56.3682C86.7563 56.3243 86.7945 56.2873 86.8394 56.26C86.8843 56.2327 86.9347 56.2157 86.9869 56.2103C87.0392 56.2048 87.092 56.211 87.1416 56.2284C87.1912 56.2458 87.2362 56.274 87.2736 56.311C87.3109 56.3479 87.3396 56.3927 87.3575 56.4421C87.3755 56.4914 87.3822 56.5442 87.3773 56.5965C87.3724 56.6488 87.3559 56.6994 87.3291 56.7445C86.9386 57.8626 87.1516 58.679 87.4001 59.1581C87.6485 59.6373 88.0212 59.9213 88.2697 59.9745C88.4091 60.0097 88.5546 60.0136 88.6957 59.986C88.8369 59.9583 88.9701 59.8999 89.086 59.8148C91.3577 58.0933 92.6355 53.692 91.9078 52.4675C91.8368 52.361 91.6771 52.0771 91.0382 52.3433C90.9572 52.3634 90.8717 52.3544 90.7967 52.3178C90.7217 52.2812 90.662 52.2193 90.6281 52.143C90.5942 52.0667 90.5882 51.9809 90.6113 51.9007C90.6344 51.8205 90.685 51.751 90.7543 51.7044C91.8546 51.2252 92.3693 51.8286 92.529 52.1126C93.4696 53.7275 91.9788 58.5192 89.512 60.3827C89.2214 60.6039 88.8656 60.7225 88.5004 60.7199Z" fill="#212529"/>
<path d="M95.0489 55.3781C99.3082 53.8341 95.6878 63.595 91.748 64.6598C91.748 64.6598 89.7603 64.8728 89.8136 62.5656" fill="#F8F9FA"/>
<path d="M91.6236 65.0139C91.0776 65.0292 90.5457 64.8392 90.1329 64.4815C89.6714 64.0556 89.4407 63.3989 89.4585 62.5648C89.4585 62.4707 89.4959 62.3804 89.5624 62.3138C89.629 62.2473 89.7193 62.2099 89.8134 62.2099H89.8312C89.9237 62.2187 90.0096 62.2619 90.072 62.3308C90.1344 62.3998 90.1688 62.4896 90.1684 62.5826C90.1506 63.2037 90.3103 63.6651 90.612 63.9491C90.909 64.1984 91.2897 64.3253 91.6769 64.304C93.7355 63.7184 95.8297 60.4707 96.4508 57.8796C96.6993 56.8325 96.646 56.0161 96.3088 55.7144C95.9716 55.4127 95.528 55.5725 95.1553 55.7144C95.0658 55.745 94.9679 55.7389 94.8831 55.6973C94.7982 55.6557 94.7333 55.582 94.7027 55.4926C94.6721 55.4032 94.6783 55.3053 94.7199 55.2204C94.7615 55.1355 94.8351 55.0707 94.9246 55.0401C95.7232 54.7561 96.3443 54.8093 96.788 55.182C97.2317 55.5547 97.4624 56.6728 97.143 58.0393C96.5573 60.5239 94.3921 64.304 91.8366 64.9962H91.6236V65.0139Z" fill="#212529"/>
<path d="M99.0058 59.5492C103.034 58.7683 100.248 68.334 94.2318 68.7777C94.2318 68.7777 91.5698 68.8664 91.8715 66.4351" fill="#F8F9FA"/>
<path d="M94.2148 69.1311C93.9486 69.1311 92.7418 69.0779 92.0319 68.297C91.5882 67.8178 91.4285 67.179 91.5172 66.3981C91.5217 66.3514 91.5353 66.306 91.5574 66.2646C91.5794 66.2232 91.6095 66.1866 91.6458 66.1569C91.6821 66.1272 91.724 66.105 91.7689 66.0916C91.8138 66.0781 91.861 66.0737 91.9077 66.0786C92.0016 66.0958 92.086 66.1468 92.1449 66.2221C92.2038 66.2973 92.233 66.3915 92.2271 66.4868C92.1561 67.0547 92.2626 67.4984 92.5465 67.8178C93.1145 68.439 94.2148 68.4212 94.2148 68.4212C97.0721 68.2083 99.0952 65.7947 99.9648 63.7893C100.621 62.263 100.728 60.8255 100.231 60.1866C99.9826 59.8849 99.5921 59.7962 99.0597 59.9027C98.9681 59.9182 98.8739 59.8972 98.7976 59.8441C98.7213 59.791 98.6688 59.7101 98.6515 59.6187C98.6355 59.5249 98.656 59.4285 98.7088 59.3493C98.7616 59.2701 98.8427 59.2141 98.9355 59.1928C99.9293 58.9976 100.497 59.388 100.781 59.7429C101.473 60.5948 101.402 62.263 100.621 64.0732C99.6276 66.3626 97.427 68.9004 94.2503 69.1311H94.2148Z" fill="#212529"/>
<path d="M89.2279 53.94L80.2124 41.9785L76.5742 45.7409L86.761 56.3891C86.846 56.4727 86.951 56.533 87.0661 56.5641C87.1811 56.5952 87.3022 56.5961 87.4177 56.5666C87.8969 56.4246 88.731 55.9987 89.3166 54.5967C89.3596 54.4888 89.374 54.3717 89.3585 54.2567C89.3429 54.1417 89.2979 54.0326 89.2279 53.94Z" fill="#F8F9FA"/>
<path d="M87.2394 56.9387C87.1025 56.9394 86.967 56.9114 86.8416 56.8563C86.7162 56.8013 86.6039 56.7205 86.5118 56.6192L76.0942 45.7403L80.247 41.4277L89.511 53.7265C89.6191 53.8654 89.6891 54.0302 89.714 54.2045C89.7389 54.3788 89.7179 54.5566 89.653 54.7203C88.9964 56.2998 88.0203 56.7612 87.5056 56.9032C87.42 56.9323 87.3296 56.9443 87.2394 56.9387ZM77.0703 45.7403L87.0264 56.1401C87.0638 56.1756 87.1089 56.202 87.1581 56.2174C87.2073 56.2328 87.2594 56.2367 87.3104 56.2288C87.7186 56.1223 88.4462 55.7496 88.9963 54.4541C89.0152 54.4036 89.0202 54.349 89.0109 54.296C89.0015 54.2429 88.9781 54.1933 88.9431 54.1524L80.1761 42.5103L77.0703 45.7403Z" fill="#212529"/>
<path d="M37.1404 24.0892C35.2415 25.3137 34.6381 26.0413 34.8865 28.2952C35.0463 29.6085 36.0756 31.8979 37.1404 32.6787C38.2052 33.4596 38.9861 33.4419 39.412 33.85C40.4236 34.8261 40.4769 35.8732 40.6011 36.938C40.9205 39.6001 43.3874 41.2683 45.6945 42.6526C49.3682 44.8532 54.4971 44.2498 57.5673 41.2683C59.3065 39.5823 60.815 37.5237 61.4539 35.1811C62.2348 32.2883 65.1453 30.0699 65.2163 29.9634C65.9972 28.5969 66.3521 27.5143 66.1746 25.9348C65.9439 23.8762 63.0334 22.1015 61.3652 20.8769C57.4963 18.0019 54.5325 14.9849 50.9121 11.4177C50.7783 11.2886 50.6182 11.1899 50.4428 11.1281C50.2673 11.0664 50.0807 11.0432 49.8955 11.06C49.7103 11.0768 49.5308 11.1334 49.3694 11.2257C49.208 11.3181 49.0683 11.4441 48.96 11.5952C46.3866 15.1269 46.1382 18.0019 39.412 21.9063" fill="#F8F9FA"/>
<path d="M50.539 44.2509H50.4325C44.7534 44.1976 41.9671 40.7547 40.6184 37.8797C39.7199 35.9042 39.1906 33.781 39.0566 31.6149C39.0542 31.5692 39.0611 31.5234 39.077 31.4804C39.0929 31.4375 39.1173 31.3982 39.1489 31.365C39.1804 31.3317 39.2184 31.3053 39.2605 31.2873C39.3026 31.2692 39.348 31.2599 39.3938 31.26H39.4116C39.4573 31.2576 39.5031 31.2645 39.5461 31.2804C39.589 31.2963 39.6283 31.3207 39.6615 31.3523C39.6948 31.3838 39.7212 31.4218 39.7392 31.4639C39.7573 31.506 39.7666 31.5514 39.7665 31.5972C39.908 33.6706 40.4189 35.702 41.275 37.5957C43.103 41.5001 46.1909 43.5055 50.4325 43.541H50.5567C55.0645 43.541 58.3477 41.1984 60.2999 36.5664C61.7729 33.0525 61.8794 29.4853 61.8971 29.4498C61.8867 29.3976 61.8881 29.3436 61.9014 29.292C61.9146 29.2405 61.9393 29.1925 61.9736 29.1517C62.0079 29.111 62.051 29.0785 62.0996 29.0566C62.1481 29.0348 62.201 29.0241 62.2543 29.0255C62.3075 29.0269 62.3598 29.0402 62.4072 29.0645C62.4546 29.0888 62.4959 29.1235 62.5281 29.166C62.5602 29.2084 62.5824 29.2576 62.593 29.3098C62.6036 29.362 62.6023 29.4159 62.5892 29.4675C62.4649 32.0029 61.9129 34.499 60.9565 36.8503C58.9156 41.6953 55.3129 44.2509 50.539 44.2509Z" fill="#212529"/>
<path d="M39.1814 33.8514C38.23 33.8477 37.3066 33.5295 36.5548 32.9463C35.4545 32.059 34.7801 30.6392 34.5672 28.7225C34.23 25.6878 35.1173 25.0134 35.9159 24.41C36.7146 23.8066 36.9808 23.5936 36.821 21.9432C36.8157 21.8499 36.8455 21.758 36.9047 21.6857C36.9638 21.6134 37.048 21.5659 37.1405 21.5527C37.1871 21.5478 37.2343 21.5522 37.2793 21.5657C37.3242 21.5791 37.366 21.6013 37.4023 21.631C37.4386 21.6607 37.4687 21.6973 37.4908 21.7387C37.5128 21.7801 37.5265 21.8255 37.5309 21.8722C37.7261 23.9131 36.9808 24.481 36.3419 24.9779C35.703 25.4748 34.9931 26.0072 35.277 28.6338C35.8095 33.4788 39.2346 33.1593 39.3766 33.1416C39.4223 33.1341 39.469 33.136 39.5139 33.1474C39.5588 33.1587 39.6008 33.1792 39.6375 33.2075C39.6741 33.2358 39.7045 33.2713 39.7268 33.3119C39.7491 33.3525 39.7628 33.3972 39.7671 33.4433C39.772 33.4899 39.7676 33.5371 39.7541 33.582C39.7407 33.627 39.7185 33.6688 39.6888 33.7051C39.6591 33.7414 39.6225 33.7715 39.5811 33.7935C39.5397 33.8156 39.4943 33.8293 39.4476 33.8337L39.1814 33.8514Z" fill="#212529"/>
<path d="M44.3458 28.4191C44.7771 28.4191 45.1267 27.8868 45.1267 27.2301C45.1267 26.5734 44.7771 26.041 44.3458 26.041C43.9145 26.041 43.5649 26.5734 43.5649 27.2301C43.5649 27.8868 43.9145 28.4191 44.3458 28.4191Z" fill="#212529"/>
<path d="M42.3755 24.8344C42.278 24.8304 42.1842 24.7957 42.1077 24.7351C42.0311 24.6745 41.9758 24.5912 41.9496 24.4972C41.9336 24.4401 41.9292 24.3803 41.9366 24.3215C41.9441 24.2627 41.9633 24.2059 41.9931 24.1546C42.0229 24.1033 42.0626 24.0585 42.11 24.0229C42.1574 23.9872 42.2115 23.9614 42.269 23.947L46.1911 22.9177C46.2459 22.9016 46.3033 22.8967 46.36 22.9032C46.4168 22.9097 46.4716 22.9276 46.5212 22.9558C46.5709 22.9839 46.6144 23.0217 46.6492 23.067C46.6839 23.1123 46.7092 23.1641 46.7235 23.2194C46.7565 23.3323 46.7432 23.4538 46.6866 23.5569C46.63 23.6601 46.5348 23.7366 46.4218 23.7695L42.4997 24.8166L42.3755 24.8344Z" fill="#212529"/>
<path d="M48.7824 33.8513H48.7647C47.9838 33.7803 47.4869 33.5141 47.3094 33.0349C46.919 32.0234 48.25 30.5858 48.534 30.3196C48.598 30.2522 48.6859 30.2125 48.7788 30.2092C48.8717 30.2059 48.9622 30.2392 49.0309 30.3019C49.0971 30.3712 49.134 30.4634 49.134 30.5592C49.134 30.6551 49.0971 30.7472 49.0309 30.8166C48.5162 31.349 47.8063 32.3606 47.9838 32.7865C48.1613 33.2124 48.534 33.1237 48.8002 33.1414C48.8476 33.1412 48.8946 33.1509 48.938 33.17C48.9814 33.1891 49.0203 33.2172 49.0521 33.2524C49.0839 33.2876 49.108 33.3291 49.1226 33.3742C49.1373 33.4193 49.1424 33.4669 49.1374 33.5141C49.1289 33.6037 49.0883 33.6872 49.023 33.7492C48.9578 33.8111 48.8723 33.8474 48.7824 33.8513Z" fill="#212529"/>
<path d="M69.99 47.6577C80.1737 47.6577 88.4292 39.4022 88.4292 29.2185C88.4292 19.0348 80.1737 10.7793 69.99 10.7793C59.8063 10.7793 51.5508 19.0348 51.5508 29.2185C51.5508 39.4022 59.8063 47.6577 69.99 47.6577Z" fill="#F8F9FA"/>
<path d="M69.9899 48.0299C59.6257 48.0299 51.1958 39.5823 51.1958 29.218C51.1958 24.2335 53.1759 19.4531 56.7005 15.9285C60.2251 12.4039 65.0054 10.4238 69.9899 10.4238C74.9745 10.4238 79.7548 12.4039 83.2794 15.9285C86.804 19.4531 88.7841 24.2335 88.7841 29.218C88.7841 39.5823 80.3542 48.0299 69.9899 48.0299ZM69.9899 11.1337C65.1951 11.1384 60.5981 13.0452 57.2076 16.4357C53.8172 19.8261 51.9104 24.4232 51.9057 29.218C51.9057 39.1918 60.0161 47.32 69.9899 47.32C79.9638 47.32 88.0742 39.1918 88.0742 29.218C88.0695 24.4232 86.1627 19.8261 82.7723 16.4357C79.3818 13.0452 74.7847 11.1384 69.9899 11.1337Z" fill="#212529"/>
<path d="M69.9902 44.4814C78.2332 44.4814 84.9155 37.7992 84.9155 29.5561C84.9155 21.3131 78.2332 14.6309 69.9902 14.6309C61.7472 14.6309 55.0649 21.3131 55.0649 29.5561C55.0649 37.7992 61.7472 44.4814 69.9902 44.4814Z" fill="#F8F9FA"/>
<path d="M69.9897 44.8358C66.9676 44.8358 64.0133 43.9397 61.5005 42.2607C58.9876 40.5817 57.0291 38.1952 55.8726 35.4031C54.7161 32.611 54.4135 29.5387 55.0031 26.5746C55.5927 23.6105 57.048 20.8878 59.185 18.7509C61.3219 16.6139 64.0446 15.1586 67.0087 14.569C69.9728 13.9794 73.0451 14.282 75.8372 15.4385C78.6293 16.5951 81.0157 18.5536 82.6948 21.0664C84.3738 23.5792 85.2699 26.5335 85.2699 29.5556C85.2652 33.6068 83.6539 37.4906 80.7893 40.3552C77.9247 43.2198 74.0408 44.8312 69.9897 44.8358ZM69.9897 14.9853C67.108 14.9853 64.2909 15.8398 61.8949 17.4408C59.4988 19.0418 57.6313 21.3174 56.5285 23.9798C55.4257 26.6422 55.1371 29.5718 55.6993 32.3982C56.2615 35.2245 57.6492 37.8207 59.6869 39.8584C61.7246 41.8961 64.3208 43.2838 67.1472 43.846C69.9735 44.4082 72.9032 44.1197 75.5655 43.0169C78.2279 41.9141 80.5035 40.0466 82.1045 37.6505C83.7055 35.2544 84.56 32.4374 84.56 29.5556C84.5553 25.6928 83.0188 21.9895 80.2873 19.258C77.5559 16.5266 73.8526 14.99 69.9897 14.9853Z" fill="#212529"/>
<path d="M58.5248 28.4561C59.3971 28.4561 60.1043 27.3755 60.1043 26.0425C60.1043 24.7095 59.3971 23.6289 58.5248 23.6289C57.6525 23.6289 56.9453 24.7095 56.9453 26.0425C56.9453 27.3755 57.6525 28.4561 58.5248 28.4561Z" fill="#212529"/>
<path d="M63.1392 42.8313C63.1392 42.8313 73.4325 30.9408 66.6353 15.0039L63.1392 42.8313Z" fill="#F8F9FA"/>
<path d="M63.1393 43.1854C63.0545 43.1829 62.9731 43.1516 62.9086 43.0966C62.8386 43.0351 62.7956 42.9484 62.789 42.8555C62.7823 42.7625 62.8125 42.6706 62.8731 42.5997C62.8908 42.5642 65.4286 39.6005 67.1146 34.7378C68.6586 30.2833 69.7767 23.2554 66.316 15.145C66.2798 15.0601 66.2781 14.9645 66.3112 14.8783C66.3443 14.7922 66.4097 14.7223 66.4935 14.6836C66.5364 14.6629 66.5831 14.6511 66.6308 14.6488C66.6784 14.6466 66.726 14.654 66.7707 14.6705C66.8155 14.6871 66.8564 14.7125 66.8911 14.7452C66.9258 14.778 66.9535 14.8174 66.9726 14.8611C70.522 23.2022 69.3685 30.4252 67.7713 35.004C66.0498 39.9732 63.512 42.9369 63.4055 43.0612C63.3718 43.0988 63.3309 43.1292 63.2851 43.1506C63.2394 43.172 63.1897 43.1838 63.1393 43.1854Z" fill="#212529"/>
<path d="M26.8286 101.875C26.8286 101.875 27.0948 107.288 26.8286 108.779V101.875Z" fill="#F8F9FA"/>
<path d="M26.8295 109.133H26.7763C26.6835 109.111 26.6024 109.055 26.5496 108.976C26.4968 108.897 26.4763 108.801 26.4923 108.707C26.7408 107.269 26.4923 101.945 26.4746 101.892C26.4722 101.846 26.4791 101.8 26.495 101.757C26.5108 101.715 26.5353 101.675 26.5668 101.642C26.5984 101.609 26.6364 101.582 26.6785 101.564C26.7206 101.546 26.766 101.537 26.8118 101.537C26.859 101.532 26.9066 101.537 26.9517 101.552C26.9968 101.566 27.0383 101.59 27.0735 101.622C27.1087 101.654 27.1367 101.693 27.1559 101.736C27.175 101.78 27.1847 101.827 27.1845 101.874C27.2022 102.087 27.4507 107.323 27.1845 108.831C27.1716 108.916 27.1286 108.993 27.0634 109.048C26.9982 109.104 26.9151 109.134 26.8295 109.133Z" fill="#212529"/>
<path d="M47.5223 40.4531C46.8301 40.4531 46.2622 39.7609 46.2622 38.9268C46.2622 38.0927 46.8301 37.3828 47.5223 37.3828C48.2144 37.3828 48.7823 38.0749 48.7823 38.9268C48.7823 39.7787 48.2144 40.4531 47.5223 40.4531ZM47.5223 38.0927C47.2205 38.0927 46.9721 38.4831 46.9721 38.9268C46.9721 39.3705 47.2205 39.7432 47.5223 39.7432C47.824 39.7432 48.0724 39.3705 48.0724 38.9268C48.0724 38.4831 47.824 38.0927 47.5223 38.0927Z" fill="#212529"/>
<path d="M96.3623 72.966C96.0771 72.96 95.7926 72.9363 95.5104 72.895C93.9664 72.6643 92.9903 72.2384 92.5999 71.635C92.5222 71.5257 92.4693 71.4009 92.4448 71.2691C92.4203 71.1373 92.4247 71.0018 92.4579 70.8719L93.1323 71.0671C93.131 71.1095 93.1382 71.1518 93.1535 71.1914C93.1687 71.231 93.1917 71.2672 93.221 71.2978C93.3985 71.5463 93.9309 71.9722 95.5991 72.2029L96.3445 72.2561C99.4858 72.2561 101.935 69.3989 102.538 67.7839C102.685 67.3908 102.715 66.9635 102.624 66.5539C102.532 66.1443 102.324 65.7701 102.024 65.4768C101.988 65.4464 101.959 65.409 101.939 65.3669C101.918 65.3248 101.907 65.2789 101.905 65.2322C101.904 65.1855 101.912 65.1389 101.929 65.0955C101.946 65.052 101.973 65.0127 102.006 64.9799C102.067 64.9099 102.154 64.8669 102.247 64.8603C102.34 64.8536 102.432 64.8838 102.503 64.9444C102.556 64.9976 103.887 66.2221 103.195 68.0323C102.503 69.8425 99.8762 72.966 96.3623 72.966Z" fill="#212529"/>
<path d="M101.42 75.6622C101.279 75.6686 101.138 75.638 101.012 75.5735C100.97 75.5528 100.932 75.5238 100.901 75.4884C100.871 75.453 100.847 75.4119 100.832 75.3673C100.817 75.3227 100.811 75.2756 100.815 75.2288C100.818 75.1819 100.831 75.1362 100.852 75.0943C100.873 75.0519 100.902 75.0142 100.938 74.9837C100.974 74.9532 101.015 74.9305 101.061 74.9171C101.106 74.9038 101.153 74.9 101.2 74.906C101.246 74.9121 101.291 74.9279 101.332 74.9524C101.508 74.9692 101.686 74.9386 101.846 74.8636C102.645 74.5264 103.568 73.6923 103.656 73.4261C103.675 73.3757 103.68 73.3211 103.671 73.268C103.662 73.2149 103.638 73.1654 103.603 73.1244L101.474 70.0187C101.447 69.9817 101.428 69.9398 101.418 69.8953C101.408 69.8509 101.407 69.8049 101.416 69.7601C101.424 69.7154 101.441 69.6727 101.466 69.6348C101.492 69.5969 101.524 69.5645 101.562 69.5395C101.601 69.5124 101.644 69.4933 101.69 69.4831C101.736 69.4729 101.783 69.4719 101.829 69.4801C101.876 69.4884 101.92 69.5057 101.959 69.5312C101.999 69.5566 102.033 69.5896 102.059 69.6282L104.189 72.7162C104.281 72.8524 104.342 73.0076 104.367 73.1704C104.391 73.3332 104.379 73.4994 104.331 73.6568C104.136 74.207 103 75.1653 102.112 75.5203C101.893 75.613 101.658 75.6613 101.42 75.6622Z" fill="#212529"/>
<path d="M101.172 75.6102C101.117 75.6089 101.063 75.5955 101.014 75.571C100.965 75.5464 100.922 75.5113 100.888 75.4682L98.7047 72.2915C98.6779 72.253 98.659 72.2097 98.6489 72.1639C98.6389 72.1181 98.6379 72.0708 98.6462 72.0247C98.6544 71.9785 98.6717 71.9344 98.6969 71.895C98.7222 71.8555 98.755 71.8214 98.7935 71.7946C98.8319 71.7678 98.8753 71.7488 98.9211 71.7388C98.9668 71.7287 99.0142 71.7278 99.0603 71.736C99.1064 71.7443 99.1505 71.7615 99.19 71.7868C99.2295 71.8121 99.2636 71.8449 99.2904 71.8833L101.473 75.06C101.499 75.0995 101.518 75.1438 101.526 75.1903C101.535 75.2368 101.535 75.2846 101.525 75.3309C101.515 75.3772 101.496 75.4211 101.469 75.4599C101.441 75.4987 101.407 75.5317 101.367 75.557C101.308 75.5933 101.24 75.6118 101.172 75.6102Z" fill="#212529"/>
<path d="M70.0966 117.421C74.37 117.421 77.8343 113.996 77.8343 109.772C77.8343 105.548 74.37 102.123 70.0966 102.123C65.8232 102.123 62.3589 105.548 62.3589 109.772C62.3589 113.996 65.8232 117.421 70.0966 117.421Z" fill="#F8F9FA"/>
<path d="M70.1854 117.776H69.6175L66.3521 117.385L68.9786 117.066V116.977L69.2803 117.013C71.0415 116.791 72.6606 115.932 73.8313 114.598C75.002 113.264 75.6433 111.547 75.6338 109.772C75.6338 105.974 73.1492 103.01 69.5998 102.584L66.6892 102.247L69.5998 101.892L69.7417 101.839C69.878 101.789 70.0225 101.765 70.1677 101.768C71.2981 101.765 72.4163 102.002 73.4486 102.463C74.4809 102.924 75.4038 103.598 76.1566 104.442C76.9094 105.285 77.4751 106.278 77.8163 107.356C78.1574 108.434 78.2665 109.572 78.1361 110.695C77.9024 112.642 76.9652 114.436 75.5009 115.74C74.0366 117.044 72.1462 117.768 70.1854 117.776ZM72.7587 102.957C74.9594 104.323 76.3436 106.808 76.3436 109.772C76.3462 111.191 75.9733 112.585 75.2626 113.813C74.5519 115.041 73.5288 116.059 72.2973 116.764C73.1809 116.486 74.0053 116.047 74.7287 115.469C75.4787 114.878 76.1036 114.144 76.5668 113.309C77.0299 112.474 77.3221 111.555 77.4262 110.606C77.5474 109.582 77.4486 108.544 77.1364 107.562C76.8242 106.58 76.3059 105.675 75.616 104.909C74.8295 104.044 73.8508 103.375 72.7587 102.957Z" fill="#212529"/>
<path d="M69.7239 117.742H69.2979C65.2694 117.742 62.0039 114.157 62.0039 109.773C62.0039 105.39 65.2161 101.77 69.1737 101.77C69.4644 101.77 69.7548 101.787 70.0433 101.823C73.6282 102.32 76.3435 105.727 76.3435 109.773C76.3435 113.82 73.6282 117.245 70.0433 117.724L69.7239 117.742ZM69.1737 102.479C65.6066 102.479 62.7138 105.763 62.7138 109.773C62.7138 113.784 65.6775 117.032 69.2979 117.032H69.5642C69.6886 117.043 69.814 117.037 69.9368 117.014C73.1846 116.588 75.6337 113.465 75.6337 109.773C75.6337 106.082 73.1846 102.976 69.9368 102.533C69.684 102.497 69.429 102.479 69.1737 102.479Z" fill="#212529"/>
<path d="M69.1732 115.647C66.2627 115.647 63.9023 113.02 63.9023 109.773C63.9023 106.525 66.2627 103.916 69.1732 103.916L69.8121 103.952C72.4387 104.306 74.4264 106.809 74.4264 109.773C74.4264 112.736 72.4387 115.239 69.8121 115.594C69.601 115.629 69.3873 115.647 69.1732 115.647ZM69.1732 104.626C66.6531 104.626 64.6122 106.933 64.6122 109.773C64.6122 112.612 66.6531 114.937 69.1732 114.937L69.7056 114.901C71.995 114.582 73.7165 112.381 73.7165 109.773C73.7165 107.164 71.995 104.963 69.7056 104.661C69.5298 104.632 69.3514 104.62 69.1732 104.626Z" fill="#212529"/>
<path d="M76.5923 106.171H74.9951C74.9009 106.171 74.8107 106.133 74.7441 106.067C74.6775 106 74.6401 105.91 74.6401 105.816C74.6401 105.722 74.6775 105.631 74.7441 105.565C74.8107 105.498 74.9009 105.461 74.9951 105.461H76.5923C76.6865 105.461 76.7767 105.498 76.8433 105.565C76.9099 105.631 76.9473 105.722 76.9473 105.816C76.9473 105.91 76.9099 106 76.8433 106.067C76.7767 106.133 76.6865 106.171 76.5923 106.171Z" fill="#212529"/>
<path d="M77.2135 107.979H75.705C75.6109 107.979 75.5206 107.942 75.4541 107.875C75.3875 107.809 75.3501 107.719 75.3501 107.624C75.3501 107.53 75.3875 107.44 75.4541 107.373C75.5206 107.307 75.6109 107.27 75.705 107.27H77.2135C77.3077 107.27 77.398 107.307 77.4645 107.373C77.5311 107.44 77.5685 107.53 77.5685 107.624C77.5685 107.719 77.5311 107.809 77.4645 107.875C77.398 107.942 77.3077 107.979 77.2135 107.979Z" fill="#212529"/>
<path d="M77.8167 110.429H75.9887C75.8946 110.429 75.8043 110.391 75.7378 110.325C75.6712 110.258 75.6338 110.168 75.6338 110.074C75.6338 109.98 75.6712 109.889 75.7378 109.823C75.8043 109.756 75.8946 109.719 75.9887 109.719H77.8167C77.9108 109.719 78.0011 109.756 78.0677 109.823C78.1342 109.889 78.1716 109.98 78.1716 110.074C78.1716 110.168 78.1342 110.258 78.0677 110.325C78.0011 110.391 77.9108 110.429 77.8167 110.429Z" fill="#212529"/>
<path d="M77.1062 112.985H75.4912C75.397 112.985 75.3068 112.948 75.2402 112.881C75.1736 112.815 75.1362 112.724 75.1362 112.63C75.1362 112.536 75.1736 112.446 75.2402 112.379C75.3068 112.313 75.397 112.275 75.4912 112.275H77.1062C77.2003 112.275 77.2906 112.313 77.3571 112.379C77.4237 112.446 77.4611 112.536 77.4611 112.63C77.4611 112.724 77.4237 112.815 77.3571 112.881C77.2906 112.948 77.2003 112.985 77.1062 112.985Z" fill="#212529"/>
<path d="M75.4914 115.612H73.9296C73.8355 115.612 73.7452 115.575 73.6787 115.508C73.6121 115.442 73.5747 115.351 73.5747 115.257C73.5747 115.163 73.6121 115.073 73.6787 115.006C73.7452 114.94 73.8355 114.902 73.9296 114.902H75.4914C75.5855 114.902 75.6758 114.94 75.7424 115.006C75.8089 115.073 75.8463 115.163 75.8463 115.257C75.8463 115.351 75.8089 115.442 75.7424 115.508C75.6758 115.575 75.5855 115.612 75.4914 115.612Z" fill="#212529"/>
<path d="M69.7414 113.375C69.2024 113.384 68.6745 113.223 68.2329 112.914C67.381 112.275 66.9551 110.997 66.9551 109.134C66.9728 107.536 67.3455 106.614 68.0909 106.294C69.2444 105.797 70.7175 107.128 70.8772 107.27C70.9446 107.334 70.9843 107.422 70.9876 107.515C70.9909 107.608 70.9576 107.699 70.8949 107.767C70.8646 107.803 70.8272 107.832 70.7851 107.852C70.743 107.872 70.6971 107.884 70.6504 107.885C70.6036 107.887 70.5571 107.879 70.5136 107.862C70.4702 107.844 70.4308 107.818 70.398 107.785C70.0608 107.483 68.996 106.685 68.3748 106.951C67.7537 107.217 67.6827 107.909 67.665 109.134C67.665 110.766 67.9844 111.849 68.6588 112.328C69.3332 112.807 70.3803 112.63 71.0724 112.417C71.1166 112.4 71.1637 112.393 71.2107 112.396C71.2577 112.399 71.3036 112.412 71.3454 112.434C71.3872 112.456 71.424 112.486 71.4534 112.523C71.4828 112.559 71.5041 112.602 71.5161 112.648C71.5325 112.692 71.5395 112.739 71.5365 112.786C71.5336 112.833 71.5209 112.879 71.4992 112.921C71.4774 112.962 71.4472 112.999 71.4103 113.029C71.3735 113.058 71.3309 113.079 71.2854 113.091C70.7889 113.267 70.2678 113.363 69.7414 113.375Z" fill="#212529"/>
<path d="M41.4354 97.2777C41.4354 97.2777 25.0016 99.7446 25.534 102.673C26.0665 105.601 27.22 107.518 25.6583 110.748C24.8774 112.363 23.1737 114.439 22.7123 116.8C22.2508 119.16 23.2624 121.946 25.534 123.827C30.095 127.607 29.9708 130.553 51.1431 123.827C51.1431 123.827 58.6678 121.911 55.4379 115.664C52.2079 109.417 50.7526 112.31 53.6632 103.897C53.6632 103.897 54.9942 100.419 50.8059 100.987C50.8059 100.987 47.4694 101.129 46.4756 99.5494C45.4818 97.9699 44.7719 95.574 41.4354 97.2777Z" fill="#F8F9FA"/>
<path d="M31.0353 113.446C31.0353 113.446 33.8039 106.755 35.8803 106.169C37.9567 105.584 50.7878 101.892 51.6042 102.815C52.4205 103.738 51.2492 109.861 49.5278 110.216C47.8063 110.571 36.0045 114.262 36.8209 115.185C37.6372 116.108 49.865 112.878 51.0185 113.57C52.1721 114.262 55.2423 118.078 51.8704 122.106C48.4984 126.135 32.7745 128.992 31.3903 127.839C30.006 126.685 24.2205 120.261 24.6819 118.308C25.1433 116.356 24.0962 114.173 26.1904 115.132C28.2845 116.09 29.793 116.126 31.0353 113.446Z" fill="#212529"/>
<path d="M33.5733 128.389C31.4081 128.389 29.3672 128.052 28.2492 126.987C24.0076 122.976 20.6712 119.817 22.9783 114.99C25.1434 110.447 26.3325 108.335 26.3502 108.299C26.3722 108.259 26.4025 108.223 26.439 108.194C26.4756 108.165 26.5177 108.144 26.5627 108.133C26.6077 108.121 26.6546 108.119 26.7005 108.126C26.7464 108.133 26.7903 108.15 26.8294 108.175C26.9115 108.22 26.9724 108.296 26.999 108.386C27.0256 108.475 27.0157 108.572 26.9714 108.654C26.9536 108.672 25.7823 110.784 23.6172 115.292C21.452 119.8 24.5578 122.515 28.7461 126.472C30.1659 127.821 34.017 128.052 39.2878 127.076C46.5819 125.745 54.4438 122.533 55.4377 120.456C56.7865 117.705 54.852 115.15 53.2903 113.109C52.8617 112.57 52.4647 112.007 52.1012 111.423C51.4091 110.234 52.0657 108.087 52.7046 105.992C53.2725 104.182 53.9114 102.106 53.2015 101.609C51.8173 100.615 43.3697 102.496 39.3056 103.401L37.2292 103.845C33.6265 104.608 30.3433 110.784 30.3078 110.837C30.2927 110.887 30.2668 110.933 30.232 110.971C30.1973 111.01 30.1544 111.041 30.1065 111.061C30.0587 111.081 30.0069 111.091 29.955 111.089C29.903 111.087 29.8522 111.073 29.8059 111.05C29.7597 111.026 29.7193 110.992 29.6875 110.951C29.6557 110.91 29.6333 110.862 29.6219 110.812C29.6106 110.761 29.6105 110.708 29.6217 110.658C29.6328 110.607 29.655 110.559 29.6867 110.518C29.8287 110.252 33.1474 103.987 37.0872 103.153L39.1459 102.709C45.6413 101.254 52.1012 99.9406 53.6097 101.023C54.7278 101.822 54.0712 103.951 53.379 106.205C52.8111 108.051 52.1722 110.145 52.7224 111.068C53.0661 111.63 53.4455 112.17 53.8582 112.683C55.4377 114.759 57.6028 117.617 56.0766 120.758C54.8343 123.331 46.2979 126.526 39.4121 127.786C37.8326 128.07 35.6497 128.389 33.5733 128.389Z" fill="#212529"/>
<path d="M27.7523 111.494C27.6822 111.492 27.6138 111.472 27.5545 111.434C27.4951 111.397 27.447 111.344 27.4151 111.281C27.0779 110.429 24.0964 102.993 26.4568 101.378C28.8171 99.7634 40.7609 97.2079 41.5595 97.5273C41.6042 97.5431 41.6452 97.5677 41.6802 97.5996C41.7152 97.6315 41.7434 97.6701 41.7633 97.7131C41.7831 97.7561 41.7942 97.8027 41.7958 97.85C41.7973 97.8973 41.7894 97.9445 41.7725 97.9887C41.7318 98.0677 41.6664 98.1312 41.5864 98.1696C41.5063 98.208 41.4159 98.2193 41.3288 98.2017C40.5125 98.113 28.9769 100.491 26.865 101.964C25.4452 102.94 26.8472 108.016 28.0718 110.997C28.0922 111.039 28.1038 111.084 28.1058 111.131C28.1079 111.177 28.1004 111.223 28.0837 111.267C28.067 111.31 28.0416 111.349 28.009 111.383C27.9764 111.416 27.9374 111.442 27.8943 111.459L27.7523 111.494Z" fill="#212529"/>
<path d="M37.9563 96.9415C36.714 96.9415 35.4362 96.6399 34.673 95.646C34.6166 95.5707 34.5923 95.476 34.6056 95.3829C34.6189 95.2897 34.6687 95.2056 34.744 95.1491C34.7803 95.1187 34.8226 95.0962 34.8682 95.0833C34.9137 95.0703 34.9615 95.067 35.0083 95.0737C35.0552 95.0804 35.1002 95.0969 35.1402 95.1221C35.1803 95.1473 35.2146 95.1807 35.241 95.2201C36.7672 97.2078 41.275 95.646 41.3104 95.6283C41.3547 95.6113 41.4018 95.6034 41.4492 95.605C41.4965 95.6066 41.543 95.6176 41.586 95.6375C41.629 95.6573 41.6676 95.6856 41.6996 95.7206C41.7315 95.7556 41.7561 95.7966 41.7719 95.8412C41.8013 95.9308 41.7958 96.0282 41.7562 96.1139C41.7167 96.1995 41.6462 96.267 41.5589 96.3026C41.4347 96.3381 39.731 96.9415 37.9563 96.9415Z" fill="#212529"/>
<path d="M35.7027 103.029C35.6171 103.032 35.5331 103.004 35.4662 102.951C35.3994 102.897 35.3542 102.821 35.3391 102.737C35.3239 102.652 35.3398 102.565 35.3838 102.492C35.4278 102.418 35.497 102.363 35.5785 102.337C37.3709 101.68 41.6657 100.189 42.5708 100.668H42.6241C42.908 100.544 43.263 99.6213 43.4404 98.8226C43.4616 98.7346 43.5157 98.6579 43.5916 98.6084C43.6675 98.5589 43.7595 98.5403 43.8486 98.5564C43.9414 98.5777 44.0225 98.6337 44.0753 98.7129C44.1281 98.7921 44.1486 98.8885 44.1326 98.9824C44.0616 99.3018 43.6712 100.97 42.9258 101.307C42.818 101.362 42.6983 101.389 42.5775 101.386C42.4566 101.383 42.3385 101.35 42.2336 101.289C41.7545 101.077 38.5245 102.017 35.8092 103.011L35.7027 103.029Z" fill="#212529"/>
<path d="M28.2134 114.83C29.2327 114.83 30.0591 114.004 30.0591 112.984C30.0591 111.965 29.2327 111.139 28.2134 111.139C27.194 111.139 26.3677 111.965 26.3677 112.984C26.3677 114.004 27.194 114.83 28.2134 114.83Z" fill="#212529"/>
<path d="M34.3008 96C35.3201 96 36.1465 95.1736 36.1465 94.1543C36.1465 93.1349 35.3201 92.3086 34.3008 92.3086C33.2814 92.3086 32.4551 93.1349 32.4551 94.1543C32.4551 95.1736 33.2814 96 34.3008 96Z" fill="#212529"/>
<path d="M43.7773 99.125C44.7967 99.125 45.623 98.2986 45.623 97.2793C45.623 96.2599 44.7967 95.4336 43.7773 95.4336C42.758 95.4336 41.9316 96.2599 41.9316 97.2793C41.9316 98.2986 42.758 99.125 43.7773 99.125Z" fill="#212529"/>
<path d="M40.5295 131.212L40.1568 130.786C39.8565 130.352 39.6453 129.864 39.5356 129.348C39.1274 127.378 40.1568 125 42.3042 123.456C44.4516 121.912 47.4331 121.593 49.1545 122.87C49.4536 123.096 49.7169 123.365 49.9354 123.669C50.0506 123.816 50.1461 123.977 50.2194 124.148C51.3019 126.225 50.2903 129.171 47.8058 130.999C45.3212 132.827 42.1799 132.862 40.5295 131.212Z" fill="#F8F9FA"/>
<path d="M43.7064 132.754C42.3754 132.754 41.1508 132.328 40.2812 131.459C40.1359 131.313 39.9996 131.159 39.873 130.997C39.5863 130.587 39.3704 130.131 39.2342 129.649C39.2121 129.563 39.2173 129.472 39.2491 129.39C39.2809 129.307 39.3377 129.236 39.4116 129.187C39.4822 129.133 39.5681 129.101 39.6572 129.098C39.7464 129.095 39.8343 129.12 39.9085 129.169C41.559 130.252 44.1323 129.986 46.1733 128.495C48.2142 127.004 49.208 124.821 48.7998 122.94L48.6046 122.035L49.3677 122.585C49.6948 122.83 49.9822 123.123 50.2196 123.455C50.339 123.624 50.4458 123.802 50.539 123.987C51.7103 126.241 50.61 129.382 48.0012 131.281C46.7587 132.209 45.2568 132.724 43.7064 132.754ZM40.1747 130.128C40.2635 130.27 40.3522 130.43 40.4587 130.572C40.5554 130.709 40.6622 130.84 40.7781 130.962C42.3399 132.506 45.2682 132.399 47.593 130.713C49.9179 129.01 50.9117 126.259 49.9179 124.307C49.8292 124.165 49.7582 124.023 49.6517 123.863L49.5984 123.81C49.5807 125.691 48.4626 127.714 46.5992 129.063C44.7357 130.412 42.0382 130.926 40.1747 130.128Z" fill="#212529"/>
<path d="M42.2867 130.555C41.2245 130.58 40.1835 130.256 39.3229 129.633L39.2164 129.544L39.1809 129.42C38.7373 127.272 39.9086 124.752 42.0915 123.155C44.2743 121.558 47.4688 121.185 49.3678 122.587L49.4742 122.676V122.8C49.9357 124.947 48.7644 127.467 46.5815 129.065C45.2504 130.041 43.7064 130.555 42.2867 130.555ZM39.8553 129.136C41.5058 130.271 44.0791 130.023 46.1733 128.497C48.1077 127.095 49.1548 124.93 48.8353 123.084C47.1849 121.948 44.6115 122.214 42.4996 123.74C40.3877 125.267 39.5359 127.29 39.8553 129.136Z" fill="#212529"/>
<path d="M49.297 128.23C49.229 128.229 49.1627 128.208 49.106 128.171C49.0494 128.133 49.0048 128.08 48.9776 128.017L48.2322 126.456C48.1922 126.368 48.1884 126.269 48.2217 126.179C48.255 126.089 48.3226 126.016 48.4097 125.976C48.4968 125.936 48.5962 125.933 48.686 125.966C48.7759 125.999 48.8488 126.067 48.8889 126.154L49.6165 127.716C49.6535 127.803 49.6558 127.901 49.6228 127.99C49.5898 128.079 49.5241 128.153 49.439 128.195L49.297 128.23Z" fill="#212529"/>
<path d="M47.5404 129.739C47.4772 129.736 47.416 129.716 47.363 129.682C47.3099 129.648 47.267 129.6 47.2387 129.543L46.653 128.496C46.6282 128.455 46.6122 128.409 46.606 128.361C46.5997 128.313 46.6034 128.264 46.6167 128.217C46.63 128.171 46.6527 128.127 46.6833 128.09C46.714 128.052 46.752 128.022 46.795 127.999C46.8782 127.96 46.9734 127.952 47.0619 127.978C47.1504 128.004 47.2261 128.063 47.2742 128.141L47.8598 129.206C47.9041 129.289 47.914 129.385 47.8874 129.475C47.8609 129.565 47.7999 129.64 47.7178 129.685C47.6657 129.721 47.6036 129.74 47.5404 129.739Z" fill="#212529"/>
<path d="M44.4342 131.619C44.3676 131.621 44.3018 131.604 44.2449 131.569C44.188 131.535 44.1428 131.484 44.1148 131.423L43.4581 130.163C43.4158 130.079 43.4088 129.981 43.4387 129.891C43.4687 129.801 43.5331 129.727 43.6178 129.684C43.7026 129.642 43.8006 129.635 43.8905 129.665C43.9804 129.695 44.0547 129.759 44.097 129.844L44.7359 131.104C44.7802 131.186 44.7901 131.283 44.7635 131.373C44.737 131.463 44.676 131.538 44.5939 131.583L44.4342 131.619Z" fill="#212529"/>
<path d="M41.5774 129.064C41.2934 129.064 40.7965 128.94 40.619 128.514C40.4415 128.088 40.9207 126.81 42.4647 125.284C44.0087 123.757 45.3042 123.03 46.3336 123.119C46.53 123.127 46.7227 123.175 46.8997 123.26C47.0768 123.346 47.2344 123.467 47.3629 123.615C47.4131 123.694 47.4319 123.789 47.4155 123.881C47.399 123.973 47.3486 124.056 47.2742 124.112C47.2002 124.163 47.1095 124.185 47.0206 124.171C46.9316 124.158 46.851 124.112 46.795 124.041C46.6465 123.901 46.449 123.825 46.2448 123.828C45.7834 123.793 44.7541 124.024 42.9616 125.781C41.1692 127.538 41.2402 128.176 41.2757 128.23C41.3111 128.283 41.5241 128.354 41.5774 128.354H41.5951C41.685 128.358 41.7705 128.394 41.8357 128.456C41.9009 128.518 41.9416 128.602 41.95 128.691C41.9461 128.786 41.908 128.876 41.8427 128.944C41.7774 129.013 41.6894 129.055 41.5951 129.064H41.5774Z" fill="#212529"/>
<path d="M97.977 130.058C97.9829 129.791 97.971 129.524 97.9415 129.259C97.8703 128.51 97.6273 127.787 97.2316 127.147C95.7941 124.698 92.4222 123.189 88.6953 123.598C84.6667 124.024 81.5255 126.561 80.9398 129.543C80.842 130.064 80.824 130.596 80.8866 131.122C80.9065 131.387 80.9541 131.649 81.0286 131.903C81.8982 135.116 85.767 137.263 90.1328 136.784C94.4986 136.305 97.8173 133.394 97.977 130.058Z" fill="#F8F9FA"/>
<path d="M88.9259 137.209C84.9506 137.209 81.5254 135.097 80.6913 131.991C80.6177 131.717 80.5643 131.439 80.5315 131.157C80.4724 130.655 80.4844 130.147 80.567 129.648C80.5808 129.564 80.6208 129.486 80.6813 129.425C80.7418 129.365 80.8198 129.325 80.9042 129.311C80.9848 129.294 81.0687 129.302 81.1447 129.334C81.2207 129.366 81.2854 129.42 81.3302 129.489C82.7854 131.814 86.0331 133.127 89.4583 132.754C93.203 132.346 96.2554 130.057 96.8766 127.182C96.8902 127.102 96.9282 127.028 96.9854 126.971C97.0427 126.914 97.1163 126.876 97.196 126.862C97.2755 126.853 97.356 126.867 97.4282 126.901C97.5004 126.936 97.5614 126.99 97.6042 127.057C97.9822 127.723 98.2179 128.461 98.2964 129.222C98.3256 129.505 98.3374 129.79 98.3319 130.074C98.1544 133.624 94.6582 136.641 90.1682 137.138C89.76 137.173 89.3341 137.209 88.9259 137.209ZM81.2059 130.536C81.2059 130.713 81.2059 130.891 81.2237 131.068C81.2414 131.246 81.3124 131.583 81.3657 131.814C82.1998 134.902 85.9444 136.889 90.0972 136.428C94.2323 135.984 97.4623 133.233 97.622 130.039C97.627 129.79 97.6152 129.541 97.5865 129.293C97.5508 128.899 97.4612 128.511 97.3203 128.14C96.2909 130.926 93.2207 133.056 89.5293 133.446C86.1929 133.819 82.9451 132.665 81.2059 130.536Z" fill="#212529"/>
<path d="M88.3056 133.518C85.0046 133.518 82.0231 132.081 80.6389 129.72L80.5679 129.614L80.6034 129.472C81.2245 126.26 84.5432 123.686 88.6605 123.243C92.4229 122.834 95.9901 124.325 97.5518 126.969L97.6051 127.076V127.218C96.9839 130.448 93.6652 133.003 89.5479 133.447C89.1358 133.498 88.7208 133.522 88.3056 133.518ZM81.331 129.49C82.7685 131.814 86.0162 133.128 89.4592 132.755C93.2038 132.347 96.2385 130.075 96.8597 127.218C95.4222 124.875 92.1745 123.58 88.7315 123.952C84.9869 124.361 81.9522 126.614 81.331 129.49Z" fill="#212529"/>
<path d="M85.2168 136.216C85.1312 136.217 85.0481 136.187 84.9829 136.131C84.9177 136.076 84.8747 135.999 84.8618 135.914L84.5069 132.631C84.4994 132.585 84.5014 132.538 84.5127 132.493C84.5241 132.449 84.5445 132.406 84.5728 132.37C84.6011 132.333 84.6367 132.303 84.6772 132.28C84.7178 132.258 84.7625 132.244 84.8086 132.24C84.8553 132.235 84.9024 132.24 84.9474 132.253C84.9923 132.267 85.0341 132.289 85.0704 132.319C85.1068 132.348 85.1368 132.385 85.1589 132.426C85.181 132.468 85.1946 132.513 85.199 132.56L85.5717 135.825C85.5766 135.872 85.5722 135.919 85.5588 135.964C85.5454 136.009 85.5231 136.051 85.4934 136.087C85.4637 136.123 85.4271 136.153 85.3857 136.175C85.3443 136.197 85.299 136.211 85.2523 136.216H85.2168Z" fill="#212529"/>
<path d="M88.8552 136.855C88.7669 136.855 88.6816 136.823 88.616 136.764C88.5503 136.705 88.5091 136.623 88.5002 136.535L88.0921 133.217C88.0862 133.121 88.1154 133.027 88.1743 132.952C88.2331 132.877 88.3175 132.826 88.4115 132.809C88.4582 132.804 88.5053 132.808 88.5503 132.822C88.5952 132.835 88.637 132.857 88.6734 132.887C88.7097 132.917 88.7397 132.953 88.7618 132.995C88.7839 133.036 88.7975 133.081 88.8019 133.128L89.2101 136.464C89.215 136.511 89.2106 136.558 89.1972 136.603C89.1837 136.648 89.1615 136.69 89.1318 136.726C89.1021 136.763 89.0655 136.793 89.0241 136.815C88.9827 136.837 88.9374 136.85 88.8907 136.855H88.8552Z" fill="#212529"/>
<path d="M94.1081 135.896C94.025 135.898 93.944 135.87 93.8792 135.818C93.8143 135.766 93.7697 135.693 93.7531 135.612L93.061 131.974C93.045 131.88 93.0655 131.784 93.1183 131.704C93.1711 131.625 93.2522 131.569 93.3449 131.548C93.4366 131.532 93.5307 131.553 93.607 131.607C93.6834 131.66 93.7358 131.741 93.7531 131.832L94.463 135.488C94.4786 135.58 94.4575 135.674 94.4044 135.75C94.3513 135.826 94.2704 135.879 94.179 135.896H94.1081Z" fill="#212529"/>
<path d="M84.0454 128.903C83.9571 128.904 83.8718 128.871 83.8062 128.812C83.7406 128.753 83.6993 128.672 83.6905 128.584C83.6727 128.513 83.6195 127.874 84.2406 127.217C85.2167 126.17 87.2399 125.691 90.2746 125.833C93.3094 125.975 94.8356 126.454 95.1551 127.359C95.368 127.927 94.9599 128.477 94.6937 128.708C94.6217 128.756 94.5347 128.777 94.4488 128.765C94.363 128.754 94.2843 128.711 94.2276 128.646C94.1708 128.58 94.14 128.496 94.1409 128.41C94.1417 128.323 94.1742 128.24 94.2322 128.176C94.2322 128.176 94.5872 127.856 94.4807 127.59C94.3742 127.324 93.895 126.685 90.2391 126.543C86.5832 126.401 85.3587 127.075 84.7908 127.679C84.2229 128.282 84.4003 128.495 84.4003 128.513C84.4057 128.606 84.3759 128.698 84.3167 128.77C84.2576 128.843 84.1734 128.89 84.0809 128.903H84.0454Z" fill="#212529"/>
<path d="M52.7933 69.7006C51.2493 69.7006 50.3974 68.6713 50.007 67.9614C49.5811 68.4583 48.7115 69.0617 47.061 68.8843C44.7539 68.6181 44.2569 66.5594 44.1682 65.5301C43.5116 65.7963 42.1983 66.2399 41.098 65.3526C40.2639 64.6782 39.9622 63.6489 40.2639 62.4953C39.341 62.6018 37.7083 62.3888 36.7144 61.3063C35.7206 60.2237 35.6674 59.1944 36.0401 57.6149C35.1527 57.7923 34.1411 57.8101 33.7152 57.2422C33.2893 56.6743 33.5022 56.1951 33.9991 55.3965L34.6025 55.7692C34.1411 56.5146 34.2476 56.763 34.2831 56.8162C34.3186 56.8695 35.0817 57.1179 36.1998 56.8517C36.2852 56.8344 36.3735 56.8383 36.4571 56.863C36.5406 56.8878 36.6168 56.9327 36.6789 56.9937C36.7371 57.061 36.7787 57.1411 36.8003 57.2274C36.8218 57.3137 36.8228 57.4039 36.8032 57.4906C36.395 58.9636 36.5547 60.0817 37.2291 60.8271C37.9035 61.5725 39.6782 61.8919 40.2994 61.7854C40.4012 61.7596 40.5081 61.7625 40.6084 61.7938C40.7087 61.8252 40.7983 61.8837 40.8673 61.9629C40.9356 62.0421 40.9829 62.1374 41.0046 62.2398C41.0263 62.3422 41.0218 62.4484 40.9915 62.5486C40.7963 63.2052 40.7253 64.128 41.5416 64.8024C42.358 65.4768 43.4051 65.1041 44.115 64.7669L44.186 64.7314C44.2565 64.6978 44.3347 64.6833 44.4126 64.6895C44.4905 64.6958 44.5654 64.7225 44.6296 64.7669C44.6954 64.8101 44.7503 64.8677 44.7903 64.9354C44.8303 65.0031 44.8543 65.079 44.8603 65.1574C44.8781 65.7963 45.0911 67.9437 47.132 68.1744C48.7292 68.3518 49.3858 67.6952 49.6343 67.287C49.6783 67.21 49.7435 67.1473 49.8222 67.1063C49.9009 67.0654 49.9897 67.0481 50.078 67.0563C50.1621 67.0572 50.244 67.0829 50.3135 67.1303C50.383 67.1777 50.4369 67.2446 50.4684 67.3225C50.7169 67.8549 51.4268 69.0795 52.953 68.9907C54.4793 68.902 54.7987 68.0324 54.9407 67.5C54.959 67.4175 55.0004 67.342 55.0601 67.2822C55.1199 67.2225 55.1954 67.1811 55.2779 67.1628C55.3633 67.1454 55.4516 67.1493 55.5352 67.1741C55.6187 67.1988 55.6949 67.2437 55.757 67.3048C56.2717 67.8904 57.656 69.1505 59.3242 68.1744C60.9924 67.1983 60.602 66.3642 60.2471 65.672C60.2051 65.5831 60.1895 65.4841 60.2021 65.3866C60.2147 65.2891 60.2549 65.1972 60.318 65.1219C60.3869 65.0544 60.4739 65.0084 60.5684 64.9895C60.663 64.9706 60.7609 64.9796 60.8505 65.0154C61.6668 65.3348 63.548 65.6365 64.0627 65.0331C64.5773 64.4297 63.8852 62.868 63.619 62.4421C63.5784 62.3696 63.5542 62.2892 63.5481 62.2064C63.5419 62.1236 63.554 62.0405 63.5835 61.9629C63.6177 61.887 63.6692 61.8201 63.734 61.7677C63.7987 61.7153 63.8748 61.6788 63.9562 61.6612C64.4709 61.5547 66.1568 61.111 66.7425 59.922C67.0619 59.2476 66.9909 58.4135 66.5295 57.4551C66.4805 57.3598 66.4595 57.2525 66.469 57.1458C66.4784 57.039 66.5178 56.937 66.5828 56.8517C66.6504 56.7647 66.7413 56.6986 66.8449 56.6609C66.9485 56.6232 67.0606 56.6156 67.1684 56.6388C67.8428 56.763 69.4578 56.976 69.6353 56.0531L70.3274 56.1951C70.1144 57.2422 69.0141 57.6681 67.2749 57.3664C67.7363 58.449 67.7718 59.4073 67.3814 60.2237C66.7425 61.5192 65.1985 62.0871 64.3644 62.3001C64.7903 63.081 65.4292 64.554 64.6128 65.4946C63.7965 66.4352 62.0218 66.098 61.0634 65.8318C61.2941 66.5771 61.3296 67.8372 59.6791 68.7955C58.0287 69.7539 56.2185 68.76 55.4908 68.0679C55.2246 68.7068 54.568 69.6119 52.9885 69.7006H52.7933Z" fill="#212529"/>
<path d="M29.083 50.9587C28.2471 50.9395 27.4271 50.7269 26.6871 50.3376L26.6162 50.3021C26.5429 50.2762 26.4796 50.2281 26.435 50.1644C26.3905 50.1008 26.367 50.0248 26.3677 49.9472C26.3677 49.853 26.4051 49.7627 26.4717 49.6962C26.5382 49.6296 26.6285 49.5922 26.7226 49.5922C26.8308 49.6008 26.9348 49.6375 27.0243 49.6987C29.3315 50.8877 31.4611 50.1246 33.1826 47.4803C33.2078 47.4402 33.2408 47.4056 33.2796 47.3785C33.3184 47.3513 33.3623 47.3323 33.4086 47.3223C33.4549 47.3124 33.5027 47.3119 33.5492 47.3207C33.5958 47.3295 33.64 47.3476 33.6795 47.3738C33.7176 47.3988 33.7502 47.4312 33.7754 47.4691C33.8006 47.507 33.8179 47.5497 33.8262 47.5945C33.8345 47.6392 33.8336 47.6852 33.8237 47.7297C33.8137 47.7741 33.7948 47.8161 33.7682 47.853C32.4549 49.9117 30.84 50.9587 29.083 50.9587Z" fill="#F8F9FA"/>
<path d="M87.3291 93.6577H87.2759C87.1833 93.6404 87.1008 93.5887 87.0448 93.5129C86.9888 93.4372 86.9636 93.3431 86.9742 93.2495C87.0274 93.0011 90.7188 67.3033 85.1462 60.2222C85.1107 60.1867 82.3067 56.6018 80.8514 55.5548C79.8221 54.8094 79.8576 53.3541 80.461 52.4313C81.0644 51.5084 81.9695 51.2955 82.8746 51.8279C82.9155 51.8499 82.9515 51.8801 82.9802 51.9167C83.0089 51.9532 83.0298 51.9953 83.0414 52.0403C83.0531 52.0853 83.0553 52.1322 83.048 52.1781C83.0407 52.224 83.0239 52.2679 82.9988 52.307C82.9509 52.3861 82.874 52.4433 82.7845 52.4665C82.695 52.4897 82.6 52.477 82.5196 52.4313C81.721 51.9699 81.2241 52.5378 81.0466 52.804C80.6207 53.4784 80.603 54.5077 81.2596 54.9691C82.8036 56.0872 85.5899 59.6366 85.6964 59.7786C91.4642 67.1081 87.8438 92.2912 87.6841 93.356C87.6712 93.4407 87.6282 93.5178 87.563 93.5732C87.4978 93.6287 87.4147 93.6587 87.3291 93.6577Z" fill="#212529"/>
</svg>
